<?xml version="1.0" ?><svg viewBox="0 0 256 256" xmlns="http://www.w3.org/2000/svg"><rect fill="none" height="256" width="256"/><path d="M61.7,204.1,16,128,61.7,51.9A7.9,7.9,0,0,1,68.5,48H216a8,8,0,0,1,8,8V200a8,8,0,0,1-8,8H68.5A7.9,7.9,0,0,1,61.7,204.1Z" opacity="0.2"/><path d="M61.7,204.1,16,128,61.7,51.9A7.9,7.9,0,0,1,68.5,48H216a8,8,0,0,1,8,8V200a8,8,0,0,1-8,8H68.5A7.9,7.9,0,0,1,61.7,204.1Z" fill="none" stroke="#000" stroke-linecap="round" stroke-linejoin="round" stroke-width="16"/><line fill="none" stroke="#000" stroke-linecap="round" stroke-linejoin="round" stroke-width="16" x1="160" x2="112" y1="104" y2="152"/><line fill="none" stroke="#000" stroke-linecap="round" stroke-linejoin="round" stroke-width="16" x1="160" x2="112" y1="152" y2="104"/></svg>