<?xml version="1.0" encoding="UTF-8"?>
<svg xmlns="http://www.w3.org/2000/svg" xmlns:xlink="http://www.w3.org/1999/xlink" width="172pt" height="146pt" viewBox="0 0 172 146" version="1.1">
<g id="surface1">
<path style=" stroke:none;fill-rule:nonzero;fill:rgb(0%,0%,0%);fill-opacity:1;" d="M 74.648438 20.648438 C 74.292969 21.007812 74 23.25 74 25.648438 L 74 30 L 141 30 L 141 87 L 40.5 87 L 62.5 65 L 55.5 58 L 39.5 73.949219 C 30.699219 82.722656 23.363281 90.710938 23.199219 91.699219 C 23.003906 92.890625 28.449219 99.015625 39.25 109.75 L 55.601562 126 L 62.398438 119 L 40.601562 97.101562 L 145.898438 96.5 L 148.199219 94.199219 C 150.480469 91.917969 150.503906 91.648438 150.800781 60.25 C 151.019531 37.148438 150.773438 27.816406 149.886719 25.699219 C 147.628906 20.308594 145.398438 20 108.699219 20 C 90.300781 20 75.007812 20.292969 74.648438 20.648438 "/>
</g>
</svg>
